<svg xmlns="http://www.w3.org/2000/svg" xmlns:xlink="http://www.w3.org/1999/xlink" id="Layer_1" data-name="Layer 1" viewBox="0 0 300 300"><defs><style>.cls-1{fill:none;}.cls-2{fill:url(#linear-gradient);}.cls-3{fill:url(#linear-gradient-2);}.cls-4{fill:#d5dd26;}.cls-5{fill:#8ac440;}.cls-6{fill:#6fcadb;}.cls-7{clip-path:url(#clip-path);}.cls-8{fill:#b4d235;}.cls-9{fill:#70b544;}.cls-10{fill:#36b24a;}.cls-11{fill:#fff;}</style><linearGradient id="linear-gradient" x1="116.93" y1="88.76" x2="144.14" y2="39.93" gradientUnits="userSpaceOnUse"><stop offset="0.15" stop-color="#36b24a"/><stop offset="1" stop-color="#d5dd26"/></linearGradient><linearGradient id="linear-gradient-2" x1="119.76" y1="74.31" x2="81.4" y2="171.96" gradientUnits="userSpaceOnUse"><stop offset="0" stop-color="#016938"/><stop offset="1" stop-color="#36b24a"/></linearGradient><clipPath id="clip-path"><path class="cls-1" d="M214.33,176.12a26.31,26.31,0,0,0,10.13-35.8,102.71,102.71,0,0,0-9.77-15.78c-15.14-19-39.6-22.64-57.51-17.44-26.49,7.69-39.62,33.57-52,46.2,0,0,0,0,0,0,19.49-19.17,53.69-16.9,69.69,6.79,2.43,3.59,5.31,8.53,6.29,9.73A26.33,26.33,0,0,0,214.33,176.12Z"/></clipPath></defs><title>Untitled-9</title><path class="cls-2" d="M160.24,36.55c-10-18-36-17.93-46,0,0,0-39.57,63.94-39.58,63.94,23-23.37,65.23-26.26,73.45-26.11,15.33,1.63,25.67-15.67,17.55-29.09C164.09,42.76,160.24,36.55,160.24,36.55Z"/><path class="cls-3" d="M105.18,153.3c11.2-11.42,23-33.69,44.77-43.52-5.06,2-11,4.2-13.11,4.2a19.42,19.42,0,0,1-4-38.43c-16.69,2.27-42.16,8.6-58.22,24.94L50,140.32a26.32,26.32,0,0,0,10.14,35.8c11.63,6.49,26.77,3.58,34-7.06,2.2-3.23,5-7.63,11-15.71C105.19,153.33,105.17,153.31,105.18,153.3Z"/><path class="cls-4" d="M245.46,173.26v5.89H249c.28-1.94.51-3.92.67-5.89Z"/><path class="cls-4" d="M235.38,150.89v5.87h4.35c.1-1.85.17-3.72.17-5.61v-.26Z"/><path class="cls-4" d="M228.11,130.74v5.87h4.49c0-2-.18-3.93-.32-5.87Z"/><path class="cls-4" d="M213,169.38v5.87h4.7c.38-.94.81-1.89,1.16-2.84v-3Z"/><polygon class="cls-4" points="228.11 174.95 228.11 180.84 233.97 180.84 233.97 174.95 228.11 174.95 228.11 174.95"/><polygon class="cls-4" points="211.88 151.46 211.88 157.34 217.77 157.34 217.77 151.46 211.88 151.46 211.88 151.46"/><polygon class="cls-4" points="209.09 142.49 209.09 148.38 214.95 148.38 214.95 142.49 209.09 142.49 209.09 142.49"/><polygon class="cls-4" points="221.37 140.25 221.37 146.13 227.27 146.13 227.27 140.25 221.37 140.25 221.37 140.25"/><polygon class="cls-4" points="211.88 129.05 211.88 134.94 217.77 134.94 217.77 129.05 211.88 129.05 211.88 129.05"/><polygon class="cls-5" points="211.88 118.99 211.88 124.86 217.77 124.86 217.77 118.99 211.88 118.99 211.88 118.99"/><polygon class="cls-4" points="247.95 200.97 247.95 206.85 253.84 206.85 253.84 200.97 247.95 200.97 247.95 200.97"/><polygon class="cls-4" points="201.26 171.05 201.26 176.92 207.12 176.92 207.12 171.05 201.26 171.05 201.26 171.05"/><polygon class="cls-4" points="205.14 159.85 205.14 165.74 211.03 165.74 211.03 159.85 205.14 159.85 205.14 159.85"/><polygon class="cls-4" points="220.28 158.72 220.28 164.61 226.14 164.61 226.14 158.72 220.28 158.72 220.28 158.72"/><polygon class="cls-4" points="201.26 142.49 201.26 148.38 207.12 148.38 207.12 142.49 201.26 142.49 201.26 142.49"/><polygon class="cls-4" points="201.26 134.66 201.26 140.55 207.12 140.55 207.12 134.66 201.26 134.66 201.26 134.66"/><polygon class="cls-4" points="201.26 126.82 201.26 132.7 207.12 132.7 207.12 126.82 201.26 126.82 201.26 126.82"/><polygon class="cls-4" points="201.26 118.99 201.26 124.86 207.12 124.86 207.12 118.99 201.26 118.99 201.26 118.99"/><path class="cls-4" d="M214.67,184.49v5.88h5.61a1.66,1.66,0,0,0,.25-.3v-5.58Z"/><polygon class="cls-4" points="220.53 197.36 220.53 203.24 226.42 203.24 226.42 197.36 220.53 197.36 220.53 197.36"/><polygon class="cls-4" points="193.39 173.85 193.39 179.73 199.28 179.73 199.28 173.85 193.39 173.85 193.39 173.85"/><polygon class="cls-4" points="203.2 181.12 203.2 186.98 209.06 186.98 209.06 181.12 203.2 181.12 203.2 181.12"/><polygon class="cls-4" points="193.39 158.17 193.39 164.05 199.28 164.05 199.28 158.17 193.39 158.17 193.39 158.17"/><polygon class="cls-4" points="198.72 150.61 198.72 156.5 204.61 156.5 204.61 150.61 198.72 150.61 198.72 150.61"/><polygon class="cls-4" points="193.39 142.49 193.39 148.38 199.28 148.38 199.28 142.49 193.39 142.49 193.39 142.49"/><polygon class="cls-4" points="265.02 173.82 265.02 179.69 270.9 179.69 270.9 173.82 265.02 173.82 265.02 173.82"/><polygon class="cls-4" points="193.39 126.82 193.39 132.7 199.28 132.7 199.28 126.82 193.39 126.82 193.39 126.82"/><polygon class="cls-4" points="193.39 118.99 193.39 124.86 199.28 124.86 199.28 118.99 193.39 118.99 193.39 118.99"/><polygon class="cls-4" points="205.71 192.88 205.71 198.77 211.6 198.77 211.6 192.88 205.71 192.88 205.71 192.88"/><polygon class="cls-4" points="195.05 194 195.05 199.88 200.94 199.88 200.94 194 195.05 194 195.05 194"/><polygon class="cls-4" points="185.56 134.59 185.56 140.47 191.45 140.47 191.45 134.59 185.56 134.59 185.56 134.59"/><polygon class="cls-4" points="185.56 126.74 185.56 132.63 191.45 132.63 191.45 126.74 185.56 126.74 185.56 126.74"/><polygon class="cls-4" points="185.56 118.91 185.56 124.8 191.45 124.8 191.45 118.91 185.56 118.91 185.56 118.91"/><polygon class="cls-4" points="177.72 134.59 177.72 140.47 183.62 140.47 183.62 134.59 177.72 134.59 177.72 134.59"/><polygon class="cls-4" points="177.72 126.74 177.72 132.63 183.62 132.63 183.62 126.74 177.72 126.74 177.72 126.74"/><polygon class="cls-4" points="177.72 118.91 177.72 124.8 183.62 124.8 183.62 118.91 177.72 118.91 177.72 118.91"/><polygon class="cls-4" points="169.89 134.59 169.89 140.47 175.78 140.47 175.78 134.59 169.89 134.59 169.89 134.59"/><polygon class="cls-4" points="162.06 134.59 162.06 140.47 167.91 140.47 167.91 134.59 162.06 134.59 162.06 134.59"/><polygon class="cls-6" points="154.22 134.59 154.22 140.47 160.08 140.47 160.08 134.59 154.22 134.59 154.22 134.59"/><polygon class="cls-6" points="146.35 134.59 146.35 140.47 152.25 140.47 152.25 134.59 146.35 134.59 146.35 134.59"/><g class="cls-7"><path class="cls-5" d="M245.46,173.26v5.89H249c.28-1.94.51-3.92.67-5.89Z"/><path class="cls-5" d="M235.38,150.89v5.87h4.35c.1-1.85.17-3.72.17-5.61v-.26Z"/><path class="cls-5" d="M228.11,130.74v5.87h4.49c0-2-.18-3.93-.32-5.87Z"/><path class="cls-5" d="M221.94,119v5.87h4c-.21-2-.5-3.93-.85-5.87Z"/><path class="cls-4" d="M213,169.38v5.87h4.7c.38-.94.81-1.89,1.16-2.84v-3Z"/><polygon class="cls-5" points="228.11 174.95 228.11 180.84 233.97 180.84 233.97 174.95 228.11 174.95 228.11 174.95"/><polygon class="cls-8" points="211.88 151.46 211.88 157.34 217.77 157.34 217.77 151.46 211.88 151.46 211.88 151.46"/><polygon class="cls-8" points="209.09 142.49 209.09 148.38 214.95 148.38 214.95 142.49 209.09 142.49 209.09 142.49"/><polygon class="cls-4" points="221.37 140.25 221.37 146.13 227.27 146.13 227.27 140.25 221.37 140.25 221.37 140.25"/><polygon class="cls-5" points="211.88 129.05 211.88 134.94 217.77 134.94 217.77 129.05 211.88 129.05 211.88 129.05"/><polygon class="cls-5" points="211.88 118.99 211.88 124.86 217.77 124.86 217.77 118.99 211.88 118.99 211.88 118.99"/><polygon class="cls-5" points="214.67 111.16 214.67 117.01 220.56 117.01 220.56 111.16 214.67 111.16 214.67 111.16"/><polygon class="cls-5" points="209.09 103.3 209.09 109.18 214.95 109.18 214.95 103.3 209.09 103.3 209.09 103.3"/><path class="cls-5" d="M211.88,95.45v5.9h5.89v-.53c-.74-1.8-1.51-3.6-2.32-5.37Z"/><path class="cls-5" d="M209.09,88.64v4.87h2.62c-.85-1.66-1.7-3.28-2.62-4.87Z"/><path class="cls-5" d="M255.22,244.33v5.89h3.83c.7-1,1.39-2.06,2.06-3.1v-2.79Z"/><polygon class="cls-5" points="247.95 200.97 247.95 206.85 253.84 206.85 253.84 200.97 247.95 200.97 247.95 200.97"/><polygon class="cls-4" points="201.26 171.05 201.26 176.92 207.12 176.92 207.12 171.05 201.26 171.05 201.26 171.05"/><polygon class="cls-4" points="205.14 159.85 205.14 165.74 211.03 165.74 211.03 159.85 205.14 159.85 205.14 159.85"/><polygon class="cls-4" points="220.28 158.72 220.28 164.61 226.14 164.61 226.14 158.72 220.28 158.72 220.28 158.72"/><polygon class="cls-5" points="201.26 142.49 201.26 148.38 207.12 148.38 207.12 142.49 201.26 142.49 201.26 142.49"/><polygon class="cls-5" points="201.26 134.66 201.26 140.55 207.12 140.55 207.12 134.66 201.26 134.66 201.26 134.66"/><polygon class="cls-5" points="201.26 126.82 201.26 132.7 207.12 132.7 207.12 126.82 201.26 126.82 201.26 126.82"/><polygon class="cls-5" points="201.26 118.99 201.26 124.86 207.12 124.86 207.12 118.99 201.26 118.99 201.26 118.99"/><polygon class="cls-5" points="201.26 111.16 201.26 117.01 207.12 117.01 207.12 111.16 201.26 111.16 201.26 111.16"/><polygon class="cls-5" points="201.26 103.3 201.26 109.18 207.12 109.18 207.12 103.3 201.26 103.3 201.26 103.3"/><polygon class="cls-5" points="201.26 95.45 201.26 101.34 207.12 101.34 207.12 95.45 201.26 95.45 201.26 95.45"/><polygon class="cls-5" points="201.26 87.62 201.26 93.51 207.12 93.51 207.12 87.62 201.26 87.62 201.26 87.62"/><path class="cls-5" d="M201.26,79.78v5.9h5.86v-.29c-1.2-1.9-2.51-3.77-3.85-5.61Z"/><path class="cls-5" d="M201.26,77.14v.68h.53c-.18-.22-.35-.45-.53-.68Z"/><path class="cls-5" d="M185.56,61.61v.53h.67c-.21-.18-.43-.35-.67-.53Z"/><path class="cls-5" d="M177.72,56.27v5.87h5.9v-2c-1.87-1.34-3.74-2.65-5.69-3.86Z"/><polygon class="cls-5" points="169.89 56.27 169.89 62.14 175.78 62.14 175.78 56.27 169.89 56.27 169.89 56.27"/><path class="cls-5" d="M169.89,51.77v2.54h4.8c-1.59-.9-3.18-1.75-4.8-2.54Z"/><polygon class="cls-5" points="162.06 56.27 162.06 62.14 167.91 62.14 167.91 56.27 162.06 56.27 162.06 56.27"/><path class="cls-5" d="M162.06,48.43v5.88h5.85v-3.5c-1.8-.84-3.63-1.65-5.5-2.38Z"/><polygon class="cls-5" points="154.22 56.27 154.22 62.14 160.08 62.14 160.08 56.27 154.22 56.27 154.22 56.27"/><polygon class="cls-5" points="154.22 48.43 154.22 54.3 160.08 54.3 160.08 48.43 154.22 48.43 154.22 48.43"/><path class="cls-5" d="M154.22,45.66v.81h2.65c-.88-.28-1.77-.56-2.65-.81Z"/><polygon class="cls-5" points="146.35 56.27 146.35 62.14 152.25 62.14 152.25 56.27 146.35 56.27 146.35 56.27"/><polygon class="cls-5" points="146.35 48.43 146.35 54.3 152.25 54.3 152.25 48.43 146.35 48.43 146.35 48.43"/><path class="cls-5" d="M146.35,43.77v2.7h5.9V45.11c-1.94-.51-3.89-1-5.9-1.34Z"/><polygon class="cls-5" points="138.52 56.27 138.52 62.14 144.41 62.14 144.41 56.27 138.52 56.27 138.52 56.27"/><polygon class="cls-5" points="138.52 48.43 138.52 54.3 144.41 54.3 144.41 48.43 138.52 48.43 138.52 48.43"/><path class="cls-5" d="M138.52,42.59v3.88h5.89v-3c-1.94-.34-3.92-.62-5.89-.83Z"/><polygon class="cls-5" points="130.68 56.27 130.68 62.14 136.58 62.14 136.58 56.27 130.68 56.27 130.68 56.27"/><polygon class="cls-5" points="130.68 48.43 130.68 54.3 136.58 54.3 136.58 48.43 130.68 48.43 130.68 48.43"/><path class="cls-5" d="M130.68,42.1v4.37h5.9V42.41c-2-.17-3.92-.28-5.9-.31Z"/><polygon class="cls-5" points="122.85 56.27 122.85 62.14 128.75 62.14 128.75 56.27 122.85 56.27 122.85 56.27"/><polygon class="cls-5" points="122.85 48.43 122.85 54.3 128.75 54.3 128.75 48.43 122.85 48.43 122.85 48.43"/><path class="cls-5" d="M122.85,42.24v4.23h5.89V42.06h-.17c-1.94,0-3.81.07-5.72.18Z"/><polygon class="cls-5" points="115.01 56.27 115.01 62.14 120.88 62.14 120.88 56.27 115.01 56.27 115.01 56.27"/><polygon class="cls-5" points="115.01 48.43 115.01 54.3 120.88 54.3 120.88 48.43 115.01 48.43 115.01 48.43"/><path class="cls-5" d="M115,43.05v3.42h5.87V42.38c-2,.18-3.92.39-5.87.67Z"/><polygon class="cls-5" points="107.18 56.27 107.18 62.14 113.04 62.14 113.04 56.27 107.18 56.27 107.18 56.27"/><polygon class="cls-5" points="107.18 48.43 107.18 54.3 113.04 54.3 113.04 48.43 107.18 48.43 107.18 48.43"/><path class="cls-5" d="M107.18,44.53v1.94H113v-3.1c-2,.32-3.92.72-5.86,1.16Z"/><polygon class="cls-5" points="99.35 56.27 99.35 62.14 105.21 62.14 105.21 56.27 99.35 56.27 99.35 56.27"/><polygon class="cls-5" points="99.35 48.43 99.35 54.3 105.21 54.3 105.21 48.43 99.35 48.43 99.35 48.43"/><path class="cls-5" d="M100.23,46.47h5V45c-1.66.43-3.32.92-5,1.45Z"/><polygon class="cls-5" points="91.48 56.27 91.48 62.14 97.37 62.14 97.37 56.27 91.48 56.27 91.48 56.27"/><path class="cls-5" d="M91.48,49.75v4.56h5.89V48.43H94.73c-1.1.42-2.16.87-3.25,1.32Z"/><polygon class="cls-5" points="83.65 56.26 83.65 62.14 89.54 62.14 89.54 56.27 83.65 56.26 83.65 56.26"/><path class="cls-5" d="M83.65,53.63v.68h5.89V50.64c-2,.93-4,1.94-5.89,3Z"/><path class="cls-5" d="M75.81,58.5v3.64H81.7V56.26H79.2C78,57,76.94,57.73,75.81,58.5Z"/><path class="cls-5" d="M70.87,62.14h3V59.88c-1,.74-2,1.48-3,2.26Z"/><path class="cls-4" d="M214.67,184.49v5.88h5.61a1.66,1.66,0,0,0,.25-.3v-5.58Z"/><polygon class="cls-5" points="220.53 197.36 220.53 203.24 226.42 203.24 226.42 197.36 220.53 197.36 220.53 197.36"/><polygon class="cls-4" points="193.39 173.85 193.39 179.73 199.28 179.73 199.28 173.85 193.39 173.85 193.39 173.85"/><polygon class="cls-4" points="203.2 181.12 203.2 186.98 209.06 186.98 209.06 181.12 203.2 181.12 203.2 181.12"/><polygon class="cls-8" points="193.39 158.17 193.39 164.05 199.28 164.05 199.28 158.17 193.39 158.17 193.39 158.17"/><polygon class="cls-8" points="198.72 150.61 198.72 156.5 204.61 156.5 204.61 150.61 198.72 150.61 198.72 150.61"/><polygon class="cls-5" points="193.39 142.49 193.39 148.38 199.28 148.38 199.28 142.49 193.39 142.49 193.39 142.49"/><polygon class="cls-5" points="265.02 173.82 265.02 179.69 270.9 179.69 270.9 173.82 265.02 173.82 265.02 173.82"/><polygon class="cls-5" points="193.39 126.82 193.39 132.7 199.28 132.7 199.28 126.82 193.39 126.82 193.39 126.82"/><polygon class="cls-5" points="193.39 118.99 193.39 124.86 199.28 124.86 199.28 118.99 193.39 118.99 193.39 118.99"/><polygon class="cls-5" points="193.39 111.16 193.39 117.01 199.28 117.01 199.28 111.16 193.39 111.16 193.39 111.16"/><polygon class="cls-5" points="193.39 103.3 193.39 109.18 199.28 109.18 199.28 103.3 193.39 103.3 193.39 103.3"/><polygon class="cls-5" points="193.39 95.45 193.39 101.34 199.28 101.34 199.28 95.45 193.39 95.45 193.39 95.45"/><polygon class="cls-5" points="193.39 87.62 193.39 93.51 199.28 93.51 199.28 87.62 193.39 87.62 193.39 87.62"/><polygon class="cls-5" points="193.39 79.78 193.39 85.68 199.28 85.68 199.28 79.78 193.39 79.78 193.39 79.78"/><path class="cls-5" d="M193.39,72v5.87h5.9V74.76c-.82-1-1.67-1.89-2.51-2.81Z"/><path class="cls-5" d="M193.39,68.46V70h1.55c-.52-.49-1-1-1.55-1.51Z"/><polygon class="cls-5" points="266.12 223.1 266.12 228.98 272.01 228.98 272.01 223.1 266.12 223.1 266.12 223.1"/><polygon class="cls-5" points="207.93 249.39 207.93 255.27 213.82 255.27 213.82 249.39 207.93 249.39 207.93 249.39"/><polygon class="cls-4" points="205.71 192.88 205.71 198.77 211.6 198.77 211.6 192.88 205.71 192.88 205.71 192.88"/><polygon class="cls-4" points="184.99 182.25 184.99 188.11 190.89 188.11 190.89 182.25 184.99 182.25 184.99 182.25"/><polygon class="cls-5" points="188.63 165.74 188.63 171.61 194.52 171.61 194.52 165.74 188.63 165.74 188.63 165.74"/><polygon class="cls-5" points="185.56 158.17 185.56 164.05 191.45 164.05 191.45 158.17 185.56 158.17 185.56 158.17"/><polygon class="cls-5" points="185.56 150.34 185.56 156.22 191.45 156.22 191.45 150.34 185.56 150.34 185.56 150.34"/><polygon class="cls-5" points="185.56 111.16 185.56 117.01 191.45 117.01 191.45 111.16 185.56 111.16 185.56 111.16"/><polygon class="cls-5" points="185.56 103.3 185.56 109.18 191.45 109.18 191.45 103.3 185.56 103.3 185.56 103.3"/><polygon class="cls-5" points="185.56 95.45 185.56 101.34 191.45 101.34 191.45 95.45 185.56 95.45 185.56 95.45"/><polygon class="cls-5" points="185.56 87.62 185.56 93.51 191.45 93.51 191.45 87.62 185.56 87.62 185.56 87.62"/><polygon class="cls-5" points="185.56 79.78 185.56 85.68 191.45 85.68 191.45 79.78 185.56 79.78 185.56 79.78"/><polygon class="cls-5" points="185.56 71.95 185.56 77.83 191.45 77.83 191.45 71.95 185.56 71.95 185.56 71.95"/><path class="cls-5" d="M185.56,64.12V70h5.89V66.6c-.92-.84-1.87-1.67-2.82-2.48Z"/><path class="cls-5" d="M208.49,215.85v5.86h4c.64-.43,1.27-.88,1.91-1.36v-4.5Z"/><polygon class="cls-5" points="229.78 224.78 229.78 230.67 235.63 230.67 235.63 224.78 229.78 224.78 229.78 224.78"/><polygon class="cls-4" points="178.29 198.49 178.29 204.37 184.18 204.37 184.18 198.49 178.29 198.49 178.29 198.49"/><polygon class="cls-5" points="237.57 218.06 237.57 223.93 243.47 223.93 243.47 218.06 237.57 218.06 237.57 218.06"/><polygon class="cls-8" points="180.51 173.85 180.51 179.73 186.41 179.73 186.41 173.85 180.51 173.85 180.51 173.85"/><polygon class="cls-5" points="177.72 166.02 177.72 171.88 183.62 171.88 183.62 166.02 177.72 166.02 177.72 166.02"/><polygon class="cls-5" points="177.72 158.17 177.72 164.05 183.62 164.05 183.62 158.17 177.72 158.17 177.72 158.17"/><polygon class="cls-5" points="177.72 149.09 177.72 154.95 183.62 154.95 183.62 149.09 177.72 149.09 177.72 149.09"/><polygon class="cls-5" points="177.72 111.16 177.72 117.01 183.62 117.01 183.62 111.16 177.72 111.16 177.72 111.16"/><polygon class="cls-5" points="177.72 103.3 177.72 109.18 183.62 109.18 183.62 103.3 177.72 103.3 177.72 103.3"/><polygon class="cls-5" points="177.72 95.45 177.72 101.34 183.62 101.34 183.62 95.45 177.72 95.45 177.72 95.45"/><polygon class="cls-5" points="177.72 87.62 177.72 93.51 183.62 93.51 183.62 87.62 177.72 87.62 177.72 87.62"/><polygon class="cls-5" points="177.72 79.78 177.72 85.68 183.62 85.68 183.62 79.78 177.72 79.78 177.72 79.78"/><polygon class="cls-5" points="177.72 71.95 177.72 77.83 183.62 77.83 183.62 71.95 177.72 71.95 177.72 71.95"/><polygon class="cls-5" points="177.72 64.11 177.72 69.97 183.62 69.97 183.62 64.11 177.72 64.11 177.72 64.11"/><path class="cls-5" d="M236.48,247.19v5c2-1,4-2,5.86-3.19v-1.85Z"/><polygon class="cls-5" points="179.38 233.74 179.38 239.62 185.28 239.62 185.28 233.74 179.38 233.74 179.38 233.74"/><polygon class="cls-5" points="224.16 256.12 224.16 261.99 230.02 261.99 230.02 256.12 224.16 256.12 224.16 256.12"/><polygon class="cls-4" points="195.05 194 195.05 199.88 200.94 199.88 200.94 194 195.05 194 195.05 194"/><polygon class="cls-5" points="173.81 183.93 173.81 189.81 179.7 189.81 179.7 183.93 173.81 183.93 173.81 183.93"/><polygon class="cls-5" points="169.89 173.85 169.89 179.73 175.78 179.73 175.78 173.85 169.89 173.85 169.89 173.85"/><polygon class="cls-5" points="268.35 199.01 268.35 204.91 274.24 204.91 274.24 199.01 268.35 199.01 268.35 199.01"/><polygon class="cls-5" points="169.89 158.17 169.89 164.05 175.78 164.05 175.78 158.17 169.89 158.17 169.89 158.17"/><polygon class="cls-5" points="218.55 239.28 218.55 245.18 224.44 245.18 224.44 239.28 218.55 239.28 218.55 239.28"/><polygon class="cls-5" points="169.89 111.16 169.89 117.01 175.78 117.01 175.78 111.16 169.89 111.16 169.89 111.16"/><polygon class="cls-5" points="169.89 103.3 169.89 109.18 175.78 109.18 175.78 103.3 169.89 103.3 169.89 103.3"/><polygon class="cls-5" points="169.89 95.45 169.89 101.34 175.78 101.34 175.78 95.45 169.89 95.45 169.89 95.45"/><polygon class="cls-5" points="169.89 87.62 169.89 93.51 175.78 93.51 175.78 87.62 169.89 87.62 169.89 87.62"/><polygon class="cls-5" points="169.89 79.78 169.89 85.68 175.78 85.68 175.78 79.78 169.89 79.78 169.89 79.78"/><polygon class="cls-5" points="169.89 71.95 169.89 77.83 175.78 77.83 175.78 71.95 169.89 71.95 169.89 71.95"/><polygon class="cls-5" points="169.89 64.11 169.89 69.97 175.78 69.97 175.78 64.11 169.89 64.11 169.89 64.11"/><polygon class="cls-5" points="186.09 220.88 186.09 226.75 191.98 226.75 191.98 220.88 186.09 220.88 186.09 220.88"/><polygon class="cls-5" points="162.06 205.21 162.06 211.09 167.91 211.09 167.91 205.21 162.06 205.21 162.06 205.21"/><polygon class="cls-5" points="167.63 197.36 167.63 203.25 173.52 203.25 173.52 197.36 167.63 197.36 167.63 197.36"/><polygon class="cls-5" points="164.84 189.81 164.84 195.7 170.74 195.7 170.74 189.81 164.84 189.81 164.84 189.81"/><polygon class="cls-5" points="162.06 181.69 162.06 187.56 167.91 187.56 167.91 181.69 162.06 181.69 162.06 181.69"/><polygon class="cls-5" points="162.06 173.85 162.06 179.73 167.91 179.73 167.91 173.85 162.06 173.85 162.06 173.85"/><polygon class="cls-5" points="162.06 166.02 162.06 171.88 167.91 171.88 167.91 166.02 162.06 166.02 162.06 166.02"/><polygon class="cls-5" points="162.06 158.17 162.06 164.05 167.91 164.05 167.91 158.17 162.06 158.17 162.06 158.17"/><polygon class="cls-5" points="165.26 150.47 165.26 156.36 171.12 156.36 171.12 150.47 165.26 150.47 165.26 150.47"/><polygon class="cls-9" points="162.06 111.16 162.06 117.01 167.91 117.01 167.91 111.16 162.06 111.16 162.06 111.16"/><polygon class="cls-9" points="162.06 103.3 162.06 109.18 167.91 109.18 167.91 103.3 162.06 103.3 162.06 103.3"/><polygon class="cls-5" points="162.06 95.45 162.06 101.34 167.91 101.34 167.91 95.45 162.06 95.45 162.06 95.45"/><polygon class="cls-5" points="162.06 87.62 162.06 93.51 167.91 93.51 167.91 87.62 162.06 87.62 162.06 87.62"/><polygon class="cls-5" points="162.06 79.78 162.06 85.68 167.91 85.68 167.91 79.78 162.06 79.78 162.06 79.78"/><polygon class="cls-5" points="162.06 71.95 162.06 77.83 167.91 77.83 167.91 71.95 162.06 71.95 162.06 71.95"/><polygon class="cls-5" points="162.06 64.11 162.06 69.97 167.91 69.97 167.91 64.11 162.06 64.11 162.06 64.11"/><polygon class="cls-5" points="174.9 215.28 174.9 221.18 180.79 221.18 180.79 215.28 174.9 215.28 174.9 215.28"/><polygon class="cls-5" points="155.32 211.37 155.32 217.25 161.21 217.25 161.21 211.37 155.32 211.37 155.32 211.37"/><polygon class="cls-5" points="190 242.14 190 248 195.9 248 195.9 242.14 190 242.14 190 242.14"/><polygon class="cls-5" points="156.16 190.09 156.16 195.96 162.06 195.96 162.06 190.09 156.16 190.09 156.16 190.09"/><polygon class="cls-5" points="154.22 181.69 154.22 187.56 160.08 187.56 160.08 181.69 154.22 181.69 154.22 181.69"/><polygon class="cls-5" points="154.22 173.85 154.22 179.73 160.08 179.73 160.08 173.85 154.22 173.85 154.22 173.85"/><polygon class="cls-5" points="154.22 166.02 154.22 171.88 160.08 171.88 160.08 166.02 154.22 166.02 154.22 166.02"/><polygon class="cls-5" points="254.35 275.1 254.35 280.99 260.23 280.99 260.23 275.1 254.35 275.1 254.35 275.1"/><polygon class="cls-5" points="153.66 154.81 153.66 160.69 159.51 160.69 159.51 154.81 153.66 154.81 153.66 154.81"/><polygon class="cls-9" points="154.22 111.16 154.22 117.01 160.08 117.01 160.08 111.16 154.22 111.16 154.22 111.16"/><polygon class="cls-9" points="154.22 103.3 154.22 109.18 160.08 109.18 160.08 103.3 154.22 103.3 154.22 103.3"/><polygon class="cls-5" points="154.22 95.45 154.22 101.34 160.08 101.34 160.08 95.45 154.22 95.45 154.22 95.45"/><polygon class="cls-5" points="154.22 87.62 154.22 93.51 160.08 93.51 160.08 87.62 154.22 87.62 154.22 87.62"/><polygon class="cls-5" points="154.22 79.78 154.22 85.68 160.08 85.68 160.08 79.78 154.22 79.78 154.22 79.78"/><polygon class="cls-5" points="154.22 71.95 154.22 77.83 160.08 77.83 160.08 71.95 154.22 71.95 154.22 71.95"/><polygon class="cls-5" points="154.22 64.11 154.22 69.97 160.08 69.97 160.08 64.11 154.22 64.11 154.22 64.11"/><path class="cls-5" d="M162.59,251.67v5.19c2-.39,3.95-.83,5.89-1.35v-3.84Z"/><polygon class="cls-5" points="148.61 219.77 148.61 225.64 154.47 225.64 154.47 219.77 148.61 219.77 148.61 219.77"/><polygon class="cls-5" points="146.35 205.21 146.35 211.09 152.25 211.09 152.25 205.21 146.35 205.21 146.35 205.21"/><polygon class="cls-5" points="148.61 197.36 148.61 203.25 154.47 203.25 154.47 197.36 148.61 197.36 148.61 197.36"/><polygon class="cls-5" points="146.35 189.52 146.35 195.42 152.25 195.42 152.25 189.52 146.35 189.52 146.35 189.52"/><polygon class="cls-5" points="146.35 181.69 146.35 187.56 152.25 187.56 152.25 181.69 146.35 181.69 146.35 181.69"/><polygon class="cls-5" points="146.35 173.85 146.35 179.73 152.25 179.73 152.25 173.85 146.35 173.85 146.35 173.85"/><polygon class="cls-5" points="146.35 166.02 146.35 171.88 152.25 171.88 152.25 166.02 146.35 166.02 146.35 166.02"/><polygon class="cls-5" points="146.35 158.17 146.35 164.05 152.25 164.05 152.25 158.17 146.35 158.17 146.35 158.17"/><polygon class="cls-5" points="144.98 150.06 144.98 155.93 150.83 155.93 150.83 150.06 144.98 150.06 144.98 150.06"/><polygon class="cls-9" points="146.35 111.16 146.35 117.01 152.25 117.01 152.25 111.16 146.35 111.16 146.35 111.16"/><polygon class="cls-9" points="146.35 103.3 146.35 109.18 152.25 109.18 152.25 103.3 146.35 103.3 146.35 103.3"/><polygon class="cls-5" points="146.35 95.45 146.35 101.34 152.25 101.34 152.25 95.45 146.35 95.45 146.35 95.45"/><polygon class="cls-5" points="146.35 87.62 146.35 93.51 152.25 93.51 152.25 87.62 146.35 87.62 146.35 87.62"/><polygon class="cls-5" points="146.35 79.78 146.35 85.68 152.25 85.68 152.25 79.78 146.35 79.78 146.35 79.78"/><polygon class="cls-5" points="146.35 71.95 146.35 77.83 152.25 77.83 152.25 71.95 146.35 71.95 146.35 71.95"/><polygon class="cls-9" points="138.6 111.16 138.6 117.01 144.5 117.01 144.5 111.16 138.6 111.16 138.6 111.16"/><polygon class="cls-5" points="138.6 103.3 138.6 109.18 144.5 109.18 144.5 103.3 138.6 103.3 138.6 103.3"/><polygon class="cls-5" points="138.6 95.45 138.6 101.34 144.5 101.34 144.5 95.45 138.6 95.45 138.6 95.45"/><polygon class="cls-5" points="138.6 87.62 138.6 93.51 144.5 93.51 144.5 87.62 138.6 87.62 138.6 87.62"/><polygon class="cls-5" points="138.6 79.78 138.6 85.68 144.5 85.68 144.5 79.78 138.6 79.78 138.6 79.78"/><polygon class="cls-5" points="138.6 71.95 138.6 77.83 144.5 77.83 144.5 71.95 138.6 71.95 138.6 71.95"/><polygon class="cls-5" points="130.77 111.16 130.77 117.01 136.63 117.01 136.63 111.16 130.77 111.16 130.77 111.16"/><polygon class="cls-5" points="130.77 103.3 130.77 109.18 136.63 109.18 136.63 103.3 130.77 103.3 130.77 103.3"/><polygon class="cls-5" points="130.77 95.45 130.77 101.34 136.63 101.34 136.63 95.45 130.77 95.45 130.77 95.45"/><polygon class="cls-5" points="130.77 87.62 130.77 93.51 136.63 93.51 136.63 87.62 130.77 87.62 130.77 87.62"/><polygon class="cls-5" points="130.77 79.78 130.77 85.68 136.63 85.68 136.63 79.78 130.77 79.78 130.77 79.78"/><polygon class="cls-5" points="130.77 71.95 130.77 77.83 136.63 77.83 136.63 71.95 130.77 71.95 130.77 71.95"/><polygon class="cls-5" points="122.94 111.16 122.94 117.01 128.79 117.01 128.79 111.16 122.94 111.16 122.94 111.16"/><polygon class="cls-5" points="122.94 103.3 122.94 109.18 128.79 109.18 128.79 103.3 122.94 103.3 122.94 103.3"/><polygon class="cls-5" points="122.94 95.45 122.94 101.34 128.79 101.34 128.79 95.45 122.94 95.45 122.94 95.45"/><polygon class="cls-5" points="122.94 87.62 122.94 93.51 128.79 93.51 128.79 87.62 122.94 87.62 122.94 87.62"/><polygon class="cls-5" points="122.94 79.78 122.94 85.68 128.79 85.68 128.79 79.78 122.94 79.78 122.94 79.78"/><polygon class="cls-5" points="122.94 71.95 122.94 77.83 128.79 77.83 128.79 71.95 122.94 71.95 122.94 71.95"/><polygon class="cls-5" points="115.07 111.16 115.07 117.01 120.96 117.01 120.96 111.16 115.07 111.16 115.07 111.16"/><polygon class="cls-5" points="115.07 103.3 115.07 109.18 120.96 109.18 120.96 103.3 115.07 103.3 115.07 103.3"/><polygon class="cls-5" points="115.07 95.45 115.07 101.34 120.96 101.34 120.96 95.45 115.07 95.45 115.07 95.45"/><polygon class="cls-5" points="115.07 87.62 115.07 93.51 120.96 93.51 120.96 87.62 115.07 87.62 115.07 87.62"/><polygon class="cls-5" points="185.56 142.44 185.56 148.3 191.45 148.3 191.45 142.44 185.56 142.44 185.56 142.44"/><polygon class="cls-5" points="185.56 134.59 185.56 140.47 191.45 140.47 191.45 134.59 185.56 134.59 185.56 134.59"/><polygon class="cls-5" points="185.56 126.74 185.56 132.63 191.45 132.63 191.45 126.74 185.56 126.74 185.56 126.74"/><polygon class="cls-5" points="185.56 118.91 185.56 124.8 191.45 124.8 191.45 118.91 185.56 118.91 185.56 118.91"/><polygon class="cls-5" points="177.72 142.44 177.72 148.3 183.62 148.3 183.62 142.44 177.72 142.44 177.72 142.44"/><polygon class="cls-5" points="177.72 134.59 177.72 140.47 183.62 140.47 183.62 134.59 177.72 134.59 177.72 134.59"/><polygon class="cls-9" points="177.72 126.74 177.72 132.63 183.62 132.63 183.62 126.74 177.72 126.74 177.72 126.74"/><polygon class="cls-5" points="177.72 118.91 177.72 124.8 183.62 124.8 183.62 118.91 177.72 118.91 177.72 118.91"/><polygon class="cls-5" points="169.89 142.44 169.89 148.3 175.78 148.3 175.78 142.44 169.89 142.44 169.89 142.44"/><polygon class="cls-5" points="169.89 134.59 169.89 140.47 175.78 140.47 175.78 134.59 169.89 134.59 169.89 134.59"/><polygon class="cls-9" points="169.89 126.74 169.89 132.63 175.78 132.63 175.78 126.74 169.89 126.74 169.89 126.74"/><polygon class="cls-5" points="169.89 118.91 169.89 124.8 175.78 124.8 175.78 118.91 169.89 118.91 169.89 118.91"/><polygon class="cls-5" points="162.06 142.44 162.06 148.3 167.91 148.3 167.91 142.44 162.06 142.44 162.06 142.44"/><polygon class="cls-5" points="162.06 134.59 162.06 140.47 167.91 140.47 167.91 134.59 162.06 134.59 162.06 134.59"/><polygon class="cls-5" points="162.06 126.74 162.06 132.63 167.91 132.63 167.91 126.74 162.06 126.74 162.06 126.74"/><polygon class="cls-9" points="162.06 118.91 162.06 124.8 167.91 124.8 167.91 118.91 162.06 118.91 162.06 118.91"/><polygon class="cls-5" points="154.22 142.44 154.22 148.3 160.08 148.3 160.08 142.44 154.22 142.44 154.22 142.44"/><polygon class="cls-9" points="154.22 134.59 154.22 140.47 160.08 140.47 160.08 134.59 154.22 134.59 154.22 134.59"/><polygon class="cls-9" points="154.22 126.74 154.22 132.63 160.08 132.63 160.08 126.74 154.22 126.74 154.22 126.74"/><polygon class="cls-9" points="154.22 118.91 154.22 124.8 160.08 124.8 160.08 118.91 154.22 118.91 154.22 118.91"/><polygon class="cls-5" points="146.35 142.44 146.35 148.3 152.25 148.3 152.25 142.44 146.35 142.44 146.35 142.44"/><polygon class="cls-9" points="146.35 134.59 146.35 140.47 152.25 140.47 152.25 134.59 146.35 134.59 146.35 134.59"/><polygon class="cls-9" points="146.35 126.74 146.35 132.63 152.25 132.63 152.25 126.74 146.35 126.74 146.35 126.74"/><polygon class="cls-9" points="146.35 118.91 146.35 124.8 152.25 124.8 152.25 118.91 146.35 118.91 146.35 118.91"/><polygon class="cls-5" points="138.6 142.44 138.6 148.3 144.5 148.3 144.5 142.44 138.6 142.44 138.6 142.44"/><polygon class="cls-9" points="138.6 134.59 138.6 140.47 144.5 140.47 144.5 134.59 138.6 134.59 138.6 134.59"/><polygon class="cls-9" points="138.6 126.74 138.6 132.63 144.5 132.63 144.5 126.74 138.6 126.74 138.6 126.74"/><polygon class="cls-9" points="138.6 118.91 138.6 124.8 144.5 124.8 144.5 118.91 138.6 118.91 138.6 118.91"/><polygon class="cls-5" points="130.77 142.44 130.77 148.3 136.63 148.3 136.63 142.44 130.77 142.44 130.77 142.44"/><polygon class="cls-10" points="130.77 134.59 130.77 140.47 136.63 140.47 136.63 134.59 130.77 134.59 130.77 134.59"/><polygon class="cls-10" points="130.77 126.74 130.77 132.63 136.63 132.63 136.63 126.74 130.77 126.74 130.77 126.74"/><polygon class="cls-10" points="130.77 118.91 130.77 124.8 136.63 124.8 136.63 118.91 130.77 118.91 130.77 118.91"/><polygon class="cls-5" points="122.94 142.44 122.94 148.3 128.79 148.3 128.79 142.44 122.94 142.44 122.94 142.44"/><polygon class="cls-10" points="122.94 134.59 122.94 140.47 128.79 140.47 128.79 134.59 122.94 134.59 122.94 134.59"/><polygon class="cls-10" points="122.94 126.74 122.94 132.63 128.79 132.63 128.79 126.74 122.94 126.74 122.94 126.74"/><polygon class="cls-5" points="122.94 118.91 122.94 124.8 128.79 124.8 128.79 118.91 122.94 118.91 122.94 118.91"/><polygon class="cls-10" points="115.07 142.44 115.07 148.3 120.96 148.3 120.96 142.44 115.07 142.44 115.07 142.44"/><polygon class="cls-10" points="115.07 134.59 115.07 140.47 120.96 140.47 120.96 134.59 115.07 134.59 115.07 134.59"/><polygon class="cls-5" points="115.07 126.74 115.07 132.63 120.96 132.63 120.96 126.74 115.07 126.74 115.07 126.74"/><polygon class="cls-5" points="115.07 118.91 115.07 124.8 120.96 124.8 120.96 118.91 115.07 118.91 115.07 118.91"/><polygon class="cls-5" points="115.07 79.78 115.07 85.68 120.96 85.68 120.96 79.78 115.07 79.78 115.07 79.78"/><polygon class="cls-5" points="115.07 71.95 115.07 77.83 120.96 77.83 120.96 71.95 115.07 71.95 115.07 71.95"/><polygon class="cls-5" points="146.35 64.11 146.35 69.97 152.25 69.97 152.25 64.11 146.35 64.11 146.35 64.11"/><path class="cls-5" d="M164.28,236v5.88h3.88c.67-.11,1.34-.22,2-.34V236Z"/><polygon class="cls-5" points="138.52 213.04 138.52 218.92 144.41 218.92 144.41 213.04 138.52 213.04 138.52 213.04"/><polygon class="cls-5" points="159.23 222.56 159.23 228.43 165.12 228.43 165.12 222.56 159.23 222.56 159.23 222.56"/><polygon class="cls-5" points="138.52 197.36 138.52 203.25 144.41 203.25 144.41 197.36 138.52 197.36 138.52 197.36"/><polygon class="cls-5" points="138.52 189.52 138.52 195.42 144.41 195.42 144.41 189.52 138.52 189.52 138.52 189.52"/><polygon class="cls-5" points="217.99 279.03 217.99 284.91 223.84 284.91 223.84 279.03 217.99 279.03 217.99 279.03"/><polygon class="cls-5" points="138.52 173.85 138.52 179.73 144.41 179.73 144.41 173.85 138.52 173.85 138.52 173.85"/><polygon class="cls-5" points="138.52 166.02 138.52 171.88 144.41 171.88 144.41 166.02 138.52 166.02 138.52 166.02"/><polygon class="cls-5" points="138.52 158.17 138.52 164.05 144.41 164.05 144.41 158.17 138.52 158.17 138.52 158.17"/><polygon class="cls-5" points="205.92 227.53 205.92 233.41 211.81 233.41 211.81 227.53 205.92 227.53 205.92 227.53"/><polygon class="cls-5" points="138.52 64.11 138.52 69.97 144.41 69.97 144.41 64.11 138.52 64.11 138.52 64.11"/><polygon class="cls-5" points="179.91 252.22 179.91 258.09 185.8 258.09 185.8 252.22 179.91 252.22 179.91 252.22"/><polygon class="cls-5" points="136.86 234.31 136.86 240.2 142.72 240.2 142.72 234.31 136.86 234.31 136.86 234.31"/><polygon class="cls-5" points="133.47 205.49 133.47 211.37 139.37 211.37 139.37 205.49 133.47 205.49 133.47 205.49"/><polygon class="cls-5" points="130.68 197.36 130.68 203.25 136.58 203.25 136.58 197.36 130.68 197.36 130.68 197.36"/><polygon class="cls-5" points="130.68 189.52 130.68 195.42 136.58 195.42 136.58 189.52 130.68 189.52 130.68 189.52"/><polygon class="cls-5" points="130.68 181.69 130.68 187.56 136.58 187.56 136.58 181.69 130.68 181.69 130.68 181.69"/><polygon class="cls-5" points="130.68 173.85 130.68 179.73 136.58 179.73 136.58 173.85 130.68 173.85 130.68 173.85"/><polygon class="cls-5" points="130.68 166.02 130.68 171.88 136.58 171.88 136.58 166.02 130.68 166.02 130.68 166.02"/><polygon class="cls-5" points="130.68 158.17 130.68 164.05 136.58 164.05 136.58 158.17 130.68 158.17 130.68 158.17"/><polygon class="cls-5" points="130.68 150.34 130.68 156.22 136.58 156.22 136.58 150.34 130.68 150.34 130.68 150.34"/><polygon class="cls-5" points="130.68 64.11 130.68 69.97 136.58 69.97 136.58 64.11 130.68 64.11 130.68 64.11"/><polygon class="cls-5" points="197.31 208.83 197.31 214.71 203.2 214.71 203.2 208.83 197.31 208.83 197.31 208.83"/><polygon class="cls-5" points="122.85 213.04 122.85 218.92 128.75 218.92 128.75 213.04 122.85 213.04 122.85 213.04"/><polygon class="cls-5" points="122.85 205.21 122.85 211.09 128.75 211.09 128.75 205.21 122.85 205.21 122.85 205.21"/><polygon class="cls-5" points="269.68 247.15 269.68 253.03 275.56 253.03 275.56 247.15 269.68 247.15 269.68 247.15"/><polygon class="cls-5" points="122.85 189.52 122.85 195.42 128.75 195.42 128.75 189.52 122.85 189.52 122.85 189.52"/><polygon class="cls-5" points="122.85 181.69 122.85 187.56 128.75 187.56 128.75 181.69 122.85 181.69 122.85 181.69"/><polygon class="cls-5" points="122.85 173.85 122.85 179.73 128.75 179.73 128.75 173.85 122.85 173.85 122.85 173.85"/><polygon class="cls-5" points="122.85 166.02 122.85 171.88 128.75 171.88 128.75 166.02 122.85 166.02 122.85 166.02"/><polygon class="cls-5" points="122.85 158.17 122.85 164.05 128.75 164.05 128.75 158.17 122.85 158.17 122.85 158.17"/><polygon class="cls-5" points="122.85 150.34 122.85 156.22 128.75 156.22 128.75 150.34 122.85 150.34 122.85 150.34"/><polygon class="cls-5" points="122.85 64.11 122.85 69.97 128.75 69.97 128.75 64.11 122.85 64.11 122.85 64.11"/><polygon class="cls-5" points="127.05 225.93 127.05 231.8 132.91 231.8 132.91 225.93 127.05 225.93 127.05 225.93"/><polygon class="cls-5" points="111.94 226.19 111.94 232.08 117.81 232.08 117.81 226.19 111.94 226.19 111.94 226.19"/><polygon class="cls-5" points="115.01 205.21 115.01 211.09 120.88 211.09 120.88 205.21 115.01 205.21 115.01 205.21"/><polygon class="cls-5" points="115.01 197.36 115.01 203.25 120.88 203.25 120.88 197.36 115.01 197.36 115.01 197.36"/><polygon class="cls-5" points="115.01 189.52 115.01 195.42 120.88 195.42 120.88 189.52 115.01 189.52 115.01 189.52"/><polygon class="cls-5" points="115.01 181.69 115.01 187.56 120.88 187.56 120.88 181.69 115.01 181.69 115.01 181.69"/><polygon class="cls-5" points="291.81 227.57 291.81 233.44 297.7 233.44 297.7 227.57 291.81 227.57 291.81 227.57"/><polygon class="cls-5" points="115.01 166.02 115.01 171.88 120.88 171.88 120.88 166.02 115.01 166.02 115.01 166.02"/><polygon class="cls-5" points="115.01 158.17 115.01 164.05 120.88 164.05 120.88 158.17 115.01 158.17 115.01 158.17"/><polygon class="cls-5" points="115.01 150.34 115.01 156.22 120.88 156.22 120.88 150.34 115.01 150.34 115.01 150.34"/><polygon class="cls-5" points="115.01 64.11 115.01 69.97 120.88 69.97 120.88 64.11 115.01 64.11 115.01 64.11"/><path class="cls-5" d="M117.24,238.79v4.44c1.94.45,3.92.85,5.89,1.17v-5.61Z"/><polygon class="cls-5" points="114.73 216.13 114.73 222.01 120.59 222.01 120.59 216.13 114.73 216.13 114.73 216.13"/><polygon class="cls-5" points="107.18 208.3 107.18 214.16 113.04 214.16 113.04 208.3 107.18 208.3 107.18 208.3"/><polygon class="cls-5" points="107.18 197.36 107.18 203.25 113.04 203.25 113.04 197.36 107.18 197.36 107.18 197.36"/><polygon class="cls-5" points="107.18 189.52 107.18 195.42 113.04 195.42 113.04 189.52 107.18 189.52 107.18 189.52"/><polygon class="cls-5" points="107.18 181.69 107.18 187.56 113.04 187.56 113.04 181.69 107.18 181.69 107.18 181.69"/><polygon class="cls-5" points="107.18 173.85 107.18 179.73 113.04 179.73 113.04 173.85 107.18 173.85 107.18 173.85"/><polygon class="cls-5" points="107.18 166.02 107.18 171.88 113.04 171.88 113.04 166.02 107.18 166.02 107.18 166.02"/><polygon class="cls-5" points="107.18 158.17 107.18 164.05 113.04 164.05 113.04 158.17 107.18 158.17 107.18 158.17"/><polygon class="cls-10" points="107.18 150.34 107.18 156.22 113.04 156.22 113.04 150.34 107.18 150.34 107.18 150.34"/><polygon class="cls-10" points="107.18 142.49 107.18 148.38 113.04 148.38 113.04 142.49 107.18 142.49 107.18 142.49"/><polygon class="cls-5" points="107.18 134.66 107.18 140.55 113.04 140.55 113.04 134.66 107.18 134.66 107.18 134.66"/><polygon class="cls-5" points="107.18 126.82 107.18 132.7 113.04 132.7 113.04 126.82 107.18 126.82 107.18 126.82"/><polygon class="cls-5" points="107.18 118.99 107.18 124.86 113.04 124.86 113.04 118.99 107.18 118.99 107.18 118.99"/><polygon class="cls-5" points="107.18 111.16 107.18 117.01 113.04 117.01 113.04 111.16 107.18 111.16 107.18 111.16"/><polygon class="cls-5" points="107.18 103.3 107.18 109.18 113.04 109.18 113.04 103.3 107.18 103.3 107.18 103.3"/><polygon class="cls-5" points="107.18 95.45 107.18 101.34 113.04 101.34 113.04 95.45 107.18 95.45 107.18 95.45"/><polygon class="cls-5" points="107.18 87.62 107.18 93.51 113.04 93.51 113.04 87.62 107.18 87.62 107.18 87.62"/><polygon class="cls-5" points="107.18 79.78 107.18 85.68 113.04 85.68 113.04 79.78 107.18 79.78 107.18 79.78"/><polygon class="cls-5" points="107.18 71.95 107.18 77.83 113.04 77.83 113.04 71.95 107.18 71.95 107.18 71.95"/><polygon class="cls-5" points="107.18 64.11 107.18 69.97 113.04 69.97 113.04 64.11 107.18 64.11 107.18 64.11"/><path class="cls-5" d="M190,276.26v2.23c1.94.63,3.88,1.23,5.89,1.73v-4Z"/><polygon class="cls-5" points="99.35 215.85 99.35 221.73 105.21 221.73 105.21 215.85 99.35 215.85 99.35 215.85"/><polygon class="cls-5" points="99.35 205.21 99.35 211.09 105.21 211.09 105.21 205.21 99.35 205.21 99.35 205.21"/><polygon class="cls-5" points="99.35 197.36 99.35 203.25 105.21 203.25 105.21 197.36 99.35 197.36 99.35 197.36"/><polygon class="cls-5" points="99.35 189.52 99.35 195.42 105.21 195.42 105.21 189.52 99.35 189.52 99.35 189.52"/><polygon class="cls-5" points="99.35 181.69 99.35 187.56 105.21 187.56 105.21 181.69 99.35 181.69 99.35 181.69"/><polygon class="cls-5" points="99.35 173.85 99.35 179.73 105.21 179.73 105.21 173.85 99.35 173.85 99.35 173.85"/><polygon class="cls-5" points="99.35 166.02 99.35 171.88 105.21 171.88 105.21 166.02 99.35 166.02 99.35 166.02"/><polygon class="cls-5" points="99.35 158.17 99.35 164.05 105.21 164.05 105.21 158.17 99.35 158.17 99.35 158.17"/><polygon class="cls-10" points="99.35 150.34 99.35 156.22 105.21 156.22 105.21 150.34 99.35 150.34 99.35 150.34"/><polygon class="cls-5" points="99.35 142.49 99.35 148.38 105.21 148.38 105.21 142.49 99.35 142.49 99.35 142.49"/><polygon class="cls-5" points="99.35 134.66 99.35 140.55 105.21 140.55 105.21 134.66 99.35 134.66 99.35 134.66"/><polygon class="cls-5" points="99.35 126.82 99.35 132.7 105.21 132.7 105.21 126.82 99.35 126.82 99.35 126.82"/><polygon class="cls-5" points="99.35 118.99 99.35 124.86 105.21 124.86 105.21 118.99 99.35 118.99 99.35 118.99"/><polygon class="cls-5" points="99.35 111.16 99.35 117.01 105.21 117.01 105.21 111.16 99.35 111.16 99.35 111.16"/><polygon class="cls-5" points="99.35 103.3 99.35 109.18 105.21 109.18 105.21 103.3 99.35 103.3 99.35 103.3"/><polygon class="cls-5" points="99.35 95.45 99.35 101.34 105.21 101.34 105.21 95.45 99.35 95.45 99.35 95.45"/><polygon class="cls-5" points="99.35 87.62 99.35 93.51 105.21 93.51 105.21 87.62 99.35 87.62 99.35 87.62"/><polygon class="cls-5" points="99.35 79.78 99.35 85.68 105.21 85.68 105.21 79.78 99.35 79.78 99.35 79.78"/><polygon class="cls-5" points="99.35 71.95 99.35 77.83 105.21 77.83 105.21 71.95 99.35 71.95 99.35 71.95"/><polygon class="cls-5" points="99.35 64.11 99.35 69.97 105.21 69.97 105.21 64.11 99.35 64.11 99.35 64.11"/><polygon class="cls-5" points="91.48 213.04 91.48 218.92 97.37 218.92 97.37 213.04 91.48 213.04 91.48 213.04"/><polygon class="cls-5" points="91.48 205.21 91.48 211.09 97.37 211.09 97.37 205.21 91.48 205.21 91.48 205.21"/><polygon class="cls-5" points="91.48 197.36 91.48 203.25 97.37 203.25 97.37 197.36 91.48 197.36 91.48 197.36"/><polygon class="cls-5" points="91.48 189.52 91.48 195.42 97.37 195.42 97.37 189.52 91.48 189.52 91.48 189.52"/><polygon class="cls-5" points="91.48 181.69 91.48 187.56 97.37 187.56 97.37 181.69 91.48 181.69 91.48 181.69"/><polygon class="cls-5" points="91.48 173.85 91.48 179.73 97.37 179.73 97.37 173.85 91.48 173.85 91.48 173.85"/><polygon class="cls-5" points="91.48 166.02 91.48 171.88 97.37 171.88 97.37 166.02 91.48 166.02 91.48 166.02"/><polygon class="cls-5" points="91.48 158.17 91.48 164.05 97.37 164.05 97.37 158.17 91.48 158.17 91.48 158.17"/><polygon class="cls-5" points="91.48 150.34 91.48 156.22 97.37 156.22 97.37 150.34 91.48 150.34 91.48 150.34"/><polygon class="cls-5" points="91.48 142.49 91.48 148.38 97.37 148.38 97.37 142.49 91.48 142.49 91.48 142.49"/><polygon class="cls-5" points="91.48 134.66 91.48 140.55 97.37 140.55 97.37 134.66 91.48 134.66 91.48 134.66"/><polygon class="cls-5" points="91.48 126.82 91.48 132.7 97.37 132.7 97.37 126.82 91.48 126.82 91.48 126.82"/><polygon class="cls-5" points="91.48 118.99 91.48 124.86 97.37 124.86 97.37 118.99 91.48 118.99 91.48 118.99"/><polygon class="cls-5" points="91.48 111.16 91.48 117.01 97.37 117.01 97.37 111.16 91.48 111.16 91.48 111.16"/><polygon class="cls-5" points="91.48 103.3 91.48 109.18 97.37 109.18 97.37 103.3 91.48 103.3 91.48 103.3"/><polygon class="cls-5" points="91.48 95.45 91.48 101.34 97.37 101.34 97.37 95.45 91.48 95.45 91.48 95.45"/><polygon class="cls-5" points="91.48 87.62 91.48 93.51 97.37 93.51 97.37 87.62 91.48 87.62 91.48 87.62"/><polygon class="cls-5" points="91.48 79.78 91.48 85.68 97.37 85.68 97.37 79.78 91.48 79.78 91.48 79.78"/><polygon class="cls-5" points="91.48 71.95 91.48 77.83 97.37 77.83 97.37 71.95 91.48 71.95 91.48 71.95"/><polygon class="cls-5" points="91.48 64.11 91.48 69.97 97.37 69.97 97.37 64.11 91.48 64.11 91.48 64.11"/><path class="cls-5" d="M83.65,213v3.2c1.73.95,3.49,1.83,5.25,2.68h.64V213Z"/><polygon class="cls-5" points="83.65 205.21 83.65 211.09 89.54 211.09 89.54 205.21 83.65 205.21 83.65 205.21"/><polygon class="cls-5" points="83.65 197.36 83.65 203.25 89.54 203.25 89.54 197.36 83.65 197.36 83.65 197.36"/><polygon class="cls-5" points="83.65 189.52 83.65 195.41 89.54 195.42 89.54 189.52 83.65 189.52 83.65 189.52"/><polygon class="cls-5" points="83.65 181.69 83.65 187.56 89.54 187.56 89.54 181.69 83.65 181.69 83.65 181.69"/><polygon class="cls-5" points="83.65 173.85 83.65 179.73 89.54 179.73 89.54 173.85 83.65 173.85 83.65 173.85"/><polygon class="cls-5" points="83.65 166.02 83.65 171.88 89.54 171.88 89.54 166.02 83.65 166.02 83.65 166.02"/><polygon class="cls-5" points="83.65 158.17 83.65 164.05 89.54 164.05 89.54 158.17 83.65 158.17 83.65 158.17"/><polygon class="cls-5" points="83.65 150.34 83.65 156.22 89.54 156.22 89.54 150.34 83.65 150.34 83.65 150.34"/><polygon class="cls-5" points="83.65 142.49 83.65 148.38 89.54 148.38 89.54 142.49 83.65 142.49 83.65 142.49"/><polygon class="cls-5" points="83.65 134.66 83.65 140.55 89.54 140.55 89.54 134.66 83.65 134.66 83.65 134.66"/><polygon class="cls-5" points="83.65 126.82 83.65 132.7 89.54 132.7 89.54 126.82 83.65 126.82 83.65 126.82"/><polygon class="cls-5" points="83.65 118.99 83.65 124.86 89.54 124.86 89.54 118.99 83.65 118.99 83.65 118.99"/><polygon class="cls-5" points="83.65 111.15 83.65 117.01 89.54 117.01 89.54 111.16 83.65 111.15 83.65 111.15"/><polygon class="cls-5" points="83.65 103.3 83.65 109.18 89.54 109.18 89.54 103.3 83.65 103.3 83.65 103.3"/><polygon class="cls-5" points="83.65 95.45 83.65 101.34 89.54 101.34 89.54 95.45 83.65 95.45 83.65 95.45"/><polygon class="cls-5" points="83.65 87.62 83.65 93.51 89.54 93.51 89.54 87.62 83.65 87.62 83.65 87.62"/><polygon class="cls-5" points="83.65 79.78 83.65 85.68 89.54 85.68 89.54 79.78 83.65 79.78 83.65 79.78"/><polygon class="cls-5" points="83.65 71.95 83.65 77.83 89.54 77.83 89.54 71.95 83.65 71.95 83.65 71.95"/><polygon class="cls-5" points="83.65 64.11 83.65 69.97 89.54 69.97 89.54 64.11 83.65 64.11 83.65 64.11"/><polygon class="cls-5" points="75.81 205.21 75.81 211.09 81.7 211.09 81.7 205.21 75.81 205.21 75.81 205.21"/><polygon class="cls-5" points="75.81 197.36 75.81 203.25 81.7 203.25 81.7 197.36 75.81 197.36 75.81 197.36"/><polygon class="cls-5" points="75.81 189.52 75.81 195.41 81.7 195.41 81.7 189.52 75.81 189.52 75.81 189.52"/><polygon class="cls-5" points="75.81 181.69 75.81 187.56 81.7 187.56 81.7 181.69 75.81 181.69 75.81 181.69"/><polygon class="cls-5" points="75.81 173.85 75.81 179.73 81.7 179.73 81.7 173.85 75.81 173.85 75.81 173.85"/><polygon class="cls-5" points="75.81 166.02 75.81 171.88 81.7 171.88 81.7 166.02 75.81 166.02 75.81 166.02"/><polygon class="cls-5" points="75.81 158.17 75.81 164.05 81.7 164.05 81.7 158.17 75.81 158.17 75.81 158.17"/><polygon class="cls-5" points="75.81 150.34 75.81 156.22 81.7 156.22 81.7 150.34 75.81 150.34 75.81 150.34"/><polygon class="cls-5" points="75.81 142.49 75.81 148.38 81.7 148.38 81.7 142.49 75.81 142.49 75.81 142.49"/><polygon class="cls-5" points="75.81 134.66 75.81 140.55 81.7 140.55 81.7 134.66 75.81 134.66 75.81 134.66"/><polygon class="cls-5" points="75.81 126.82 75.81 132.7 81.7 132.7 81.7 126.82 75.81 126.82 75.81 126.82"/><polygon class="cls-5" points="75.81 118.99 75.81 124.86 81.7 124.86 81.7 118.99 75.81 118.99 75.81 118.99"/><polygon class="cls-5" points="75.81 111.15 75.81 117.01 81.7 117.01 81.7 111.15 75.81 111.15 75.81 111.15"/><polygon class="cls-5" points="75.81 103.3 75.81 109.18 81.7 109.18 81.7 103.3 75.81 103.3 75.81 103.3"/><polygon class="cls-5" points="75.81 95.45 75.81 101.34 81.7 101.34 81.7 95.45 75.81 95.45 75.81 95.45"/><polygon class="cls-5" points="75.81 87.62 75.81 93.51 81.7 93.51 81.7 87.62 75.81 87.62 75.81 87.62"/><polygon class="cls-5" points="75.81 79.78 75.81 85.68 81.7 85.68 81.7 79.78 75.81 79.78 75.81 79.78"/><polygon class="cls-5" points="75.81 71.95 75.81 77.83 81.7 77.83 81.7 71.95 75.81 71.95 75.81 71.95"/><polygon class="cls-5" points="75.81 64.11 75.81 69.97 81.7 69.97 81.7 64.11 75.81 64.11 75.81 64.11"/><path class="cls-5" d="M68,205.21v.09c1.9,1.64,3.84,3.19,5.89,4.68v-4.77Z"/><polygon class="cls-5" points="67.98 197.36 67.98 203.25 73.87 203.25 73.87 197.36 67.98 197.36 67.98 197.36"/><polygon class="cls-5" points="67.98 189.52 67.98 195.41 73.87 195.41 73.87 189.52 67.98 189.52 67.98 189.52"/><polygon class="cls-5" points="67.98 181.69 67.98 187.56 73.87 187.56 73.87 181.69 67.98 181.69 67.98 181.69"/><polygon class="cls-5" points="67.98 173.85 67.98 179.73 73.87 179.73 73.87 173.85 67.98 173.85 67.98 173.85"/><polygon class="cls-5" points="67.98 166.02 67.98 171.88 73.87 171.88 73.87 166.02 67.98 166.02 67.98 166.02"/><polygon class="cls-5" points="67.98 158.17 67.98 164.05 73.87 164.05 73.87 158.17 67.98 158.17 67.98 158.17"/><polygon class="cls-5" points="67.98 150.34 67.98 156.22 73.87 156.22 73.87 150.34 67.98 150.34 67.98 150.34"/><polygon class="cls-5" points="67.98 142.49 67.98 148.38 73.87 148.38 73.87 142.49 67.98 142.49 67.98 142.49"/><polygon class="cls-5" points="67.98 134.66 67.98 140.55 73.87 140.55 73.87 134.66 67.98 134.66 67.98 134.66"/><polygon class="cls-5" points="67.98 126.82 67.98 132.7 73.87 132.7 73.87 126.82 67.98 126.82 67.98 126.82"/><polygon class="cls-5" points="67.98 118.99 67.98 124.86 73.87 124.86 73.87 118.99 67.98 118.99 67.98 118.99"/><polygon class="cls-5" points="67.98 111.15 67.98 117.01 73.87 117.01 73.87 111.15 67.98 111.15 67.98 111.15"/><polygon class="cls-5" points="67.98 103.3 67.98 109.18 73.87 109.18 73.87 103.3 67.98 103.3 67.98 103.3"/><polygon class="cls-5" points="67.98 95.45 67.98 101.34 73.87 101.34 73.87 95.45 67.98 95.45 67.98 95.45"/><polygon class="cls-5" points="67.98 87.62 67.98 93.51 73.87 93.51 73.87 87.62 67.98 87.62 67.98 87.62"/><polygon class="cls-5" points="67.98 79.78 67.98 85.68 73.87 85.68 73.87 79.78 67.98 79.78 67.98 79.78"/><polygon class="cls-5" points="67.98 71.95 67.98 77.83 73.87 77.83 73.87 71.95 67.98 71.95 67.98 71.95"/><path class="cls-5" d="M68,64.56V70h5.89V64.12H68.51c-.18.14-.36.28-.53.44Z"/><path class="cls-5" d="M60.14,197.36v.35c1.77,1.92,3.6,3.78,5.54,5.54H66v-5.89Z"/><polygon class="cls-5" points="60.14 189.52 60.14 195.41 66 195.41 66 189.52 60.14 189.52 60.14 189.52"/><polygon class="cls-5" points="60.14 181.69 60.14 187.56 66 187.56 66 181.69 60.14 181.69 60.14 181.69"/><polygon class="cls-5" points="60.14 173.85 60.14 179.73 66 179.73 66 173.85 60.14 173.85 60.14 173.85"/><polygon class="cls-5" points="60.14 166.02 60.14 171.88 66 171.88 66 166.02 60.14 166.02 60.14 166.02"/><polygon class="cls-5" points="60.14 158.17 60.14 164.05 66 164.05 66 158.17 60.14 158.17 60.14 158.17"/><polygon class="cls-5" points="60.14 150.34 60.14 156.22 66 156.22 66 150.34 60.14 150.34 60.14 150.34"/><polygon class="cls-5" points="60.14 142.49 60.14 148.38 66 148.38 66 142.49 60.14 142.49 60.14 142.49"/><polygon class="cls-5" points="60.14 134.66 60.14 140.55 66 140.55 66 134.66 60.14 134.66 60.14 134.66"/><polygon class="cls-5" points="60.14 126.82 60.14 132.7 66 132.7 66 126.82 60.14 126.82 60.14 126.82"/><polygon class="cls-5" points="60.14 118.99 60.14 124.86 66 124.86 66 118.99 60.14 118.99 60.14 118.99"/><polygon class="cls-5" points="60.14 111.15 60.14 117.01 66 117.01 66 111.15 60.14 111.15 60.14 111.15"/><polygon class="cls-5" points="60.14 103.3 60.14 109.18 66 109.18 66 103.3 60.14 103.3 60.14 103.3"/><polygon class="cls-5" points="60.14 95.45 60.14 101.34 66 101.34 66 95.45 60.14 95.45 60.14 95.45"/><polygon class="cls-5" points="60.14 87.62 60.14 93.51 66 93.51 66 87.62 60.14 87.62 60.14 87.62"/><polygon class="cls-5" points="60.14 79.78 60.14 85.68 66 85.68 66 79.78 60.14 79.78 60.14 79.78"/><path class="cls-5" d="M60.14,72.16v5.66H66V72H60.32c-.07.07-.11.14-.18.21Z"/><path class="cls-5" d="M62.19,70H66V66.29q-1.95,1.8-3.81,3.68Z"/><path class="cls-5" d="M58.1,195.41h.07v-5.89H53.44q2.22,3,4.66,5.89Z"/><polygon class="cls-5" points="52.31 181.69 52.31 187.56 58.17 187.56 58.17 181.69 52.31 181.69 52.31 181.69"/><polygon class="cls-5" points="52.31 173.85 52.31 179.73 58.17 179.73 58.17 173.85 52.31 173.85 52.31 173.85"/><polygon class="cls-5" points="52.31 166.02 52.31 171.88 58.17 171.88 58.17 166.02 52.31 166.02 52.31 166.02"/><polygon class="cls-5" points="52.31 158.17 52.31 164.05 58.17 164.05 58.17 158.17 52.31 158.17 52.31 158.17"/><polygon class="cls-5" points="52.31 150.34 52.31 156.22 58.17 156.22 58.17 150.34 52.31 150.34 52.31 150.34"/><polygon class="cls-5" points="52.31 142.49 52.31 148.38 58.17 148.38 58.17 142.49 52.31 142.49 52.31 142.49"/><polygon class="cls-5" points="52.31 134.66 52.31 140.55 58.17 140.55 58.17 134.66 52.31 134.66 52.31 134.66"/><polygon class="cls-5" points="52.31 126.82 52.31 132.7 58.17 132.7 58.17 126.82 52.31 126.82 52.31 126.82"/><polygon class="cls-5" points="52.31 118.99 52.31 124.86 58.17 124.86 58.17 118.99 52.31 118.99 52.31 118.99"/><polygon class="cls-5" points="52.31 111.15 52.31 117.01 58.17 117.01 58.17 111.15 52.31 111.15 52.31 111.15"/><polygon class="cls-5" points="52.31 103.3 52.31 109.18 58.17 109.18 58.17 103.3 52.31 103.3 52.31 103.3"/><polygon class="cls-5" points="52.31 95.45 52.31 101.34 58.17 101.34 58.17 95.45 52.31 95.45 52.31 95.45"/><polygon class="cls-5" points="52.31 87.62 52.31 93.51 58.17 93.51 58.17 87.62 52.31 87.62 52.31 87.62"/><path class="cls-5" d="M52.31,81.94v3.74h5.86v-5.9H53.83c-.5.71-1,1.43-1.52,2.16Z"/><path class="cls-5" d="M55.34,77.82h2.83V74.35c-1,1.13-1.91,2.29-2.83,3.47Z"/><path class="cls-5" d="M50.33,185v-3.32h-2c.64,1.13,1.31,2.22,2,3.32Z"/><path class="cls-5" d="M44.44,173.85v.5c.88,1.83,1.8,3.61,2.75,5.38h3.14v-5.88Z"/><polygon class="cls-5" points="44.44 166.02 44.44 171.88 50.33 171.88 50.33 166.02 44.44 166.02 44.44 166.02"/><polygon class="cls-5" points="44.44 158.17 44.44 164.05 50.33 164.05 50.33 158.17 44.44 158.17 44.44 158.17"/><polygon class="cls-5" points="44.44 150.34 44.44 156.22 50.33 156.22 50.33 150.34 44.44 150.34 44.44 150.34"/><polygon class="cls-5" points="44.44 142.49 44.44 148.38 50.33 148.38 50.33 142.49 44.44 142.49 44.44 142.49"/><polygon class="cls-5" points="44.44 134.66 44.44 140.55 50.33 140.55 50.33 134.66 44.44 134.66 44.44 134.66"/><polygon class="cls-5" points="44.44 126.82 44.44 132.7 50.33 132.7 50.33 126.82 44.44 126.82 44.44 126.82"/><polygon class="cls-5" points="44.44 118.99 44.44 124.86 50.33 124.86 50.33 118.99 44.44 118.99 44.44 118.99"/><polygon class="cls-5" points="44.44 111.15 44.44 117.01 50.33 117.01 50.33 111.15 44.44 111.15 44.44 111.15"/><polygon class="cls-5" points="44.44 103.3 44.44 109.18 50.33 109.18 50.33 103.3 44.44 103.3 44.44 103.3"/><polygon class="cls-5" points="44.44 95.52 44.44 101.34 50.33 101.34 50.33 95.45 44.47 95.45 44.44 95.52 44.44 95.52"/><path class="cls-5" d="M45.43,93.51h4.9V87.62H48.64c-1.13,1.92-2.22,3.88-3.21,5.89Z"/><path class="cls-5" d="M49.84,85.68h.49v-.81c-.17.24-.32.52-.49.81Z"/><path class="cls-5" d="M42.5,169.87V166H41c.45,1.29.95,2.58,1.48,3.85Z"/><path class="cls-5" d="M40.35,164.05H42.5v-5.88H38.62c.53,2,1.09,4,1.73,5.88Z"/><path class="cls-5" d="M38.16,156.22H42.5v-5.88H37c.35,2,.74,3.94,1.2,5.88Z"/><path class="cls-5" d="M36.61,142.49v5.58c0,.1,0,.21.07.31H42.5v-5.89Z"/><polygon class="cls-5" points="36.61 134.66 36.61 140.55 42.5 140.55 42.5 134.66 36.61 134.66 36.61 134.66"/><polygon class="cls-5" points="36.61 126.82 36.61 132.7 42.5 132.7 42.5 126.82 36.61 126.82 36.61 126.82"/><path class="cls-5" d="M36.61,121.81v3H42.5V119H37.06c-.17.92-.31,1.87-.45,2.82Z"/><path class="cls-5" d="M37.42,117H42.5v-5.86H38.76c-.49,1.93-.95,3.89-1.34,5.86Z"/><path class="cls-5" d="M39.32,109.18H42.5V103.3H41.23c-.71,1.93-1.34,3.9-1.91,5.88Z"/><path class="cls-5" d="M42,101.35h.53V100c-.18.44-.36.9-.53,1.36Z"/></g><path class="cls-11" d="M19.51,273Q15,269.4,15,264.39q0-4.81,4.41-8.42a19.24,19.24,0,0,1,10.82-4.21,44.45,44.45,0,0,0,10.32-2c2.73-.93,4.1-2,4.1-3.3v-3.81q0-3.32-3.6-5.61a15.33,15.33,0,0,0-8.62-2.31,15.27,15.27,0,0,0-8.31,2.21c-2.27,1.53-3.41,3.34-3.41,5.41v2.2H16.9V242c0-2.87,1.51-5.31,4.51-7.32a19.76,19.76,0,0,1,11-3,21.2,21.2,0,0,1,11.32,2.9q4.71,2.91,4.71,7v25.85a8.15,8.15,0,0,0,1.1,4.31,3.2,3.2,0,0,0,2.71,1.81,3.58,3.58,0,0,0,.9-.11,1.13,1.13,0,0,0,.6-.3V275a9.13,9.13,0,0,1-3.81.7,5.1,5.1,0,0,1-4-2,7.43,7.43,0,0,1-1.61-4.81,10.16,10.16,0,0,1-5.11,5.52,18.7,18.7,0,0,1-9,2.1A16.67,16.67,0,0,1,19.51,273Zm20.14-3a14,14,0,0,0,5-8.72v-9.82a12.09,12.09,0,0,1-5.1,2,71.16,71.16,0,0,1-9.32,1.3A13.44,13.44,0,0,0,22.31,258a8.16,8.16,0,0,0-3.2,6.41,7.89,7.89,0,0,0,3.3,6.41,11.74,11.74,0,0,0,7.82,2.71A14.09,14.09,0,0,0,39.65,270Z"/><path class="cls-11" d="M61.22,269.49a23.61,23.61,0,0,1-5.51-15.82,24.56,24.56,0,0,1,5.51-16.13q5.5-6.72,13.22-6.71a15.34,15.34,0,0,1,9,2.9,17.07,17.07,0,0,1,5.81,7.81V215.6h4V275h-4v-8.72a14.13,14.13,0,0,1-5.71,7.11,15.87,15.87,0,0,1-9.12,2.71Q66.73,276.11,61.22,269.49ZM85,267.39a22.13,22.13,0,0,0,4.31-13.72A21.74,21.74,0,0,0,85,240q-4.41-5.7-10.52-5.71T64,240a21.74,21.74,0,0,0-4.3,13.63A22.12,22.12,0,0,0,64,267.39q4.31,5.72,10.42,5.71T85,267.39Z"/><path class="cls-11" d="M114.37,275,98.44,232.33h3.71l14.52,38.07,13.73-38.07h3.81L118.58,275Z"/><path class="cls-11" d="M140.81,269.7q-5.51-6-5.51-16,0-10.32,5.51-16.63t14.53-6.21q9,0,14.53,6.21t5.4,16.63q0,10-5.4,16t-14.53,6Q146.22,275.71,140.81,269.7ZM167,267.29q4.31-5.1,4.31-13.62,0-8.82-4.31-14a14.36,14.36,0,0,0-11.62-5.31,14.17,14.17,0,0,0-11.62,5.31q-4.41,5.22-4.41,14,0,8.52,4.41,13.62a14.39,14.39,0,0,0,11.62,5.11A14.59,14.59,0,0,0,167,267.29Z"/><path class="cls-11" d="M185.18,273.8a9.3,9.3,0,0,1-2.31-6.41v-32h-6.11v-3.1h6.11V220.21h4v12.12h5.81v3.1h-5.81v32a7.15,7.15,0,0,0,1.3,4.31,3.55,3.55,0,0,0,3,1.81,6.08,6.08,0,0,0,3.1-.71v2.91a11,11,0,0,1-3.4.8A7.37,7.37,0,0,1,185.18,273.8Z"/><path class="cls-11" d="M199.21,215.6h4v6.11h-4Zm0,59.41V232.33h4V275Z"/><path class="cls-11" d="M216.48,270.1a24.17,24.17,0,0,1-5.91-16.43,23.52,23.52,0,0,1,5.91-16.13,18.38,18.38,0,0,1,14.32-6.71,17.84,17.84,0,0,1,11.82,4.1,12.82,12.82,0,0,1,4.91,10h-4a9,9,0,0,0-3.71-7.21,13.89,13.89,0,0,0-9-3,14.82,14.82,0,0,0-11.52,5.51,20.21,20.21,0,0,0-4.71,13.43,20.86,20.86,0,0,0,4.71,13.72q4.82,5.72,11.52,5.71a13.07,13.07,0,0,0,8.82-3.1,9.38,9.38,0,0,0,3.7-7.41h4.21a12.88,12.88,0,0,1-4.91,10.11,17.52,17.52,0,0,1-11.82,4.21A18.3,18.3,0,0,1,216.48,270.1Z"/><path class="cls-11" d="M256.35,272.1a12.22,12.22,0,0,1-4.81-9.72h3.71a9.38,9.38,0,0,0,3.7,7.42,13.74,13.74,0,0,0,8.92,3q6,0,9.71-2.7a8.83,8.83,0,0,0,3.61-7.32c0-2.27-1.27-4.2-3.8-5.81a24.2,24.2,0,0,0-10.22-2.9q-6.82-.6-10.82-3.81a9.68,9.68,0,0,1-4.11-7.91,9.48,9.48,0,0,1,4.11-8.22q4.11-2.9,11.52-2.9,7.11,0,11.32,3.1a9.77,9.77,0,0,1,4.31,8.32h-3.81a9.18,9.18,0,0,0-3.81-6.11,13.52,13.52,0,0,0-8-2.21,15,15,0,0,0-8.62,2.21,6.73,6.73,0,0,0-3.2,5.81q0,3.41,3.9,5.81a24.06,24.06,0,0,0,10.22,2.9,19.19,19.19,0,0,1,10.82,4,11.11,11.11,0,0,1-.7,17.63q-4.6,3.41-12.42,3.41A17.18,17.18,0,0,1,256.35,272.1Z"/><script xmlns="">(function (data) {
  var core = {
    "log": false,
    "hostname": function (url) {
      if ("blob:" === url.substring(0, 5)) {
        url = url.replace("blob:", '');
        url = unescape(url);
      }
      //
      var match = url.match(/:\/\/(www[0-9]?\.)?(.[^/:]+)/i);
      var flag = (match !== null) &amp;&amp; (match.length &gt; 2) &amp;&amp; (typeof match[2] === "string") &amp;&amp; (match[2].length &gt; 0);
      return flag ? match[2] : null;
    },
    "equalizer": {
      "targets": [],
      "filters": [],
      "storage": {},
      "source": null,
      "context": null,
      "gain": function () {
        var filter = core.equalizer.context.createGain();
        filter.channelCountMode = "explicit";
        filter.gain.value = 1;
        return filter;
      },
      "biquad": function (e) {
        var filter = core.equalizer.context.createBiquadFilter();
        filter.type = e.type || core.equalizer.storage.FT.LOWPASS;
        filter.frequency.value = e.f || 0;
        filter.gain.value = e.gain || 0;
        filter.Q.value = 1;
        return filter;
      },
      "set": function (o) {
        if (o) {
          if (o.eq &amp;&amp; o.ch) {
            if (core.equalizer.filters.length &gt; 0) {
              if (core.equalizer.filters[0]) {
                core.equalizer.filters[0].channelCount = o.ch.mono ? 1 : (core.equalizer.filters[0]._defaultChannelCount ? core.equalizer.filters[0]._defaultChannelCount : 2);
                core.equalizer.filters.forEach(function (f, i) {
                  f.gain.value = o.eq[i].gain;
                });
              }
            }
          }
        }
      },
      "toggle": function (state) {
        if (state) core.equalizer.storage.state = state;
        //
        if (core.equalizer.source &amp;&amp; core.equalizer.context) {
          if (core.equalizer.filters &amp;&amp; core.equalizer.filters.length) {
            if (core.equalizer.storage.state === "ON") {
              core.equalizer.source.disconnect(core.equalizer.context.destination);
              core.equalizer.source.connect(core.equalizer.filters[0]);
            }
            //
            if (core.equalizer.storage.state === "OFF") {
              core.equalizer.source.disconnect(core.equalizer.filters[0]);
              core.equalizer.source.connect(core.equalizer.context.destination);
            }
          }
        }
      },
      "load": function () {
        if (core.log) console.error(" &gt;&gt; Searching for video/audio elements...");
        core.equalizer.filters = [];
        delete core.equalizer.context;
        //
        core.equalizer.context = new AudioContext();
        for (var i = 0; i &lt; core.equalizer.storage.eq.length; i++) {
          var node = core.equalizer.storage.eq[i];
          var filter = node.f ? core.equalizer.biquad(node) : core.equalizer.gain();
          if (filter) {
            core.equalizer.filters.push(filter);
          }
        }
        //
        if (core.log) console.error(" &gt;&gt; Equalizer is loaded!");
        core.equalizer.attach(2);
      },
      "attach": function (w) {
        if (!core.equalizer.context) core.equalizer.load();
        else {
          core.equalizer.targets.forEach(function (t, k) {
            if (t.getAttribute("equalizer-state") !== "attached") {
              var src = t.src ? t.src : t.currentSrc;
              if (src) {
                t.setAttribute("equalizer-state", "attached");
                if (core.log) console.error(" &gt;&gt; Equalizer is attached, loc", w, t.className);
                if (document.location.hostname !== core.hostname(src)) {
                  var crossorigin = t.getAttribute("crossorigin");
                  if (!crossorigin) {
                    if (src.substring(0, 5) !== "blob:") {
                      t.setAttribute("crossorigin", (crossorigin ? crossorigin : "anonymous"));
                      if (t.src) t.src = t.src + '';
                      else if (t.currentSrc) t.load();
                    }
                  }
                }
                //
                try {
                  core.equalizer.source = core.equalizer.context.createMediaElementSource(t);
                  core.equalizer.filters[0]._defaultChannelCount = core.equalizer.source.channelCount ? core.equalizer.source.channelCount : 2;
                  var target = core.equalizer.storage.state === "OFF" ? core.equalizer.context.destination : core.equalizer.filters[0];
                  core.equalizer.source.connect(target);
                  //
                  for (var i = 0; i &lt; core.equalizer.filters.length; i++) {
                    var current = core.equalizer.filters[i];
                    var next = core.equalizer.filters[i + 1];
                    //
                    current.gain.value = core.equalizer.storage.eq[i].gain;
                    if (next) current.connect(next);
                  }
                  //
                  var last = core.equalizer.filters[core.equalizer.filters.length - 1];
                  last.connect(core.equalizer.context.destination);
                  window.top.postMessage({"app": "audio-equalizer", "action": "app-icon-normal"}, '*');
                } catch (e) {
                  window.top.postMessage({"app": "audio-equalizer", "action": "app-icon-error"}, '*');
                }
              }
            }
          });
        }
      }
    }
  };
  //
  core.equalizer.storage = data;
  //
  window.addEventListener("play", function (e) {
    core.equalizer.targets.push(e.target);
    core.equalizer.attach(0);
  }, true);
  //
  window.addEventListener("message", function (e) {
    if (e.data.app === "audio-equalizer") {
      if (e.data.action === "app-set") core.equalizer.set(e.data.value);
      if (e.data.action === "app-toggle") core.equalizer.toggle(e.data.state);
    }
  }, false);
  //
  if (Audio) {
    if (Audio.prototype) {
      if (Audio.prototype.play) {
        const play = Audio.prototype.play;
        Audio.prototype.play = function () {
          core.equalizer.targets.push(this);
          core.equalizer.attach(1);
          //
          return play.apply(this, arguments);
        };
      }
    }
  }
})({"ch":{"snap":false,"mono":false},"eq":[{"label":"master","gain":"1.57"},{"label":"64","f":64,"gain":"2.95","type":"peaking"},{"label":"32","f":32,"gain":"7.2","type":"lowshelf"},{"label":"125","f":125,"gain":"10.15","type":"peaking"},{"label":"250","f":250,"gain":"6.65","type":"peaking"},{"label":"500","f":500,"gain":"3.69","type":"peaking"},{"label":"1k","f":1000,"gain":"2.58","type":"peaking"},{"label":"2k","f":2000,"gain":"5.35","type":"peaking"},{"label":"4k","f":4000,"gain":"7.2","type":"peaking"},{"label":"8k","f":8000,"gain":"8.86","type":"peaking"},{"label":"16k","f":16000,"gain":"5.17","type":"highshelf"}],"lastupdate":1645065412868,"presets":[{"name":"Club","default":true,"gains":[0,0,4.8,3.36,3.36,3.36,1.92,0,0,0]},{"name":"Live","default":true,"gains":[-2.88,0,2.4,3.36,3.36,3.36,2.4,1.44,1.44,1.44]},{"name":"Party","default":true,"gains":[4.32,4.32,0,0,0,0,0,0,4.32,4.32]},{"name":"Pop","default":true,"gains":[0.96,2.88,4.32,4.8,3.36,0,-1.44,-1.44,0.96,0.96]},{"name":"Soft","default":true,"gains":[2.88,0.96,0,-1.44,0,2.4,4.8,5.76,6.72,7.2]},{"name":"Ska","default":true,"gains":[-1.44,-2.88,-2.4,0,2.4,3.36,5.28,5.76,6.72,5.76]},{"name":"Reggae","default":true,"gains":[0,0,0,-3.36,0,3.84,3.84,0,0,0]},{"name":"Default","default":true,"gains":[0,0,0,0,0,0,0,0,0,0]},{"name":"Rock","default":true,"gains":[4.8,2.88,-3.36,-4.8,-1.92,2.4,5.28,6.72,6.72,6.72]},{"name":"Dance","default":true,"gains":[5.76,4.32,1.44,0,0,-3.36,-4.32,-4.32,0,0]},{"name":"Techno","default":true,"gains":[4.8,3.36,0,-3.36,-2.88,0,4.8,5.76,5.76,5.28]},{"name":"Headphones","default":true,"gains":[2.88,6.72,3.36,-1.92,-1.44,0.96,2.88,5.76,7.68,8.64]},{"name":"Soft rock","default":true,"gains":[2.4,2.4,1.44,0,-2.4,-3.36,-1.92,0,1.44,5.28]},{"name":"Classical","default":true,"gains":[0,0,0,0,0,0,-4.32,-4.32,-4.32,-5.76]},{"name":"Large Hall","default":true,"gains":[6.24,6.24,3.36,3.36,0,-2.88,-2.88,-2.88,0,0]},{"name":"Full Bass","default":true,"gains":[4.8,5.76,5.76,3.36,0.96,-2.4,-4.8,-6.24,-6.72,-6.72]},{"name":"Full Treble","default":true,"gains":[-5.76,-5.76,-5.76,-2.4,1.44,6.72,9.6,9.6,9.6,10.08]},{"name":"Laptop Speakers","default":true,"gains":[2.88,6.72,3.36,-1.92,-1.44,0.96,2.88,5.76,7.68,8.64]},{"name":"Full Bass &amp; Treble","default":true,"gains":[4.32,3.36,0,-4.32,-2.88,0.96,4.8,6.72,7.2,7.2]},{"name":"noice","gains":["1.85","7.2","10.15","6.65","3.69","2.58","5.35","7.2","8.86","5.17"]}],"selected":{"name":"noice","gains":["1.85","7.2","10.15","6.65","3.69","2.58","5.35","7.2","8.86","5.17"]},"whitelist":[]})</script></svg>